[IMG]http://www.shotpix.com/images/93585814051537457004.jpg[/IMG]

General
Complete name                            : Ray J Ft. Bobby Brackins - I Hit It First [Music Video] 1080p [Sbyky].mp4
Format                                   : MPEG-4
Format profile                           : Base Media / Version 2
Codec ID                                 : mp42
File size                                : 83.1 MiB
Duration                                 : 3mn 38s
Overall bit rate mode                    : Variable
Overall bit rate                         : 3 186 Kbps
Encoded date                             : UTC 2013-05-01 02:45:29
Tagged date                              : UTC 2013-05-01 02:45:29

Video
ID                                       : 1
Format                                   : AVC
Format/Info                              : Advanced Video Codec
Format profile                           : High@L4.0
Format settings, CABAC                   : Yes
Format settings, ReFrames                : 1 frame
Codec ID                                 : avc1
Codec ID/Info                            : Advanced Video Coding
Duration                                 : 3mn 38s
Bit rate                                 : 2 992 Kbps
Maximum bit rate                         : 10.1 Mbps
Width                                    : 1 920 pixels
Height                                   : 1 080 pixels
Display aspect ratio                     : 16:9
Frame rate mode                          : Constant
Frame rate                               : 23.976 fps
Color space                              : YUV
Chroma subsampling                       : 4:2:0
Bit depth                                : 8 bits
Scan type                                : Progressive
Bits/(Pixel*Frame)                       : 0.060
Stream size                              : 78.0 MiB (94%)
Tagged date                              : UTC 2013-05-01 02:45:49

Audio
ID                                       : 2
Format                                   : AAC
Format/Info                              : Advanced Audio Codec
Format profile                           : LC
Codec ID                                 : 40
Duration                                 : 3mn 38s
Bit rate mode                            : Variable
Bit rate                                 : 192 Kbps
Maximum bit rate                         : 202 Kbps
Channel(s)                               : 2 channels
Channel positions                        : Front: L R
Sampling rate                            : 44.1 KHz
Compression mode                         : Lossy
Stream size                              : 5.01 MiB (6%)
Title                                    : IsoMedia File Produced by Google, 5-11-2011
Encoded date                             : UTC 2013-05-01 02:45:42
Tagged date                              : UTC 2013-05-01 02:45:49

Shared By Sbyky
[IMG]http://www.shotpix.com/images/76014917432015785852.gif[/IMG]
[IMG]http://www.shotpix.com/images/54100788659511547411.gif[/IMG]